<svg width="32" height="32" viewBox="0 0 32 32" xmlns="http://www.w3.org/2000/svg">
    <defs>
        <linearGradient id="bgGradient" x1="0%" y1="0%" x2="100%" y2="100%">
            <stop offset="0%" stop-color="#00ff88"/>
            <stop offset="100%" stop-color="#0099ff"/>
        </linearGradient>
        <radialGradient id="eyeGradient" cx="50%" cy="40%" r="60%">
            <stop offset="0%" stop-color="#2c2c2c"/>
            <stop offset="80%" stop-color="#1a1a1a"/>
            <stop offset="100%" stop-color="#000000"/>
        </radialGradient>
    </defs>
    
    <!-- Background circle -->
    <circle cx="16" cy="16" r="15" fill="#0a0a0a" stroke="url(#bgGradient)" stroke-width="2"/>
    
    <!-- Cat face (white) -->
    <ellipse cx="16" cy="17" rx="11" ry="10" fill="#f8f8f8" stroke="rgba(220,220,220,0.3)" stroke-width="0.5"/>
    
    <!-- Cat ears (white with grey stripes) -->
    <path d="M8 10 Q6 5, 4 7 Q3 9, 6 12 Q8 13, 10 11 Z" fill="#f8f8f8"/>
    <path d="M24 10 Q26 5, 28 7 Q29 9, 26 12 Q24 13, 22 11 Z" fill="#f8f8f8"/>
    
    <!-- Grey stripes on ears -->
    <path d="M6 8 Q7 6, 8 8 Q8 10, 7 10 Q6 9, 6 8 Z" fill="#b0b0b0"/>
    <path d="M26 8 Q25 6, 24 8 Q24 10, 25 10 Q26 9, 26 8 Z" fill="#b0b0b0"/>
    
    <!-- Inner ears (pink) -->
    <ellipse cx="7" cy="9" rx="1.2" ry="1.8" fill="#ffb3ba"/>
    <ellipse cx="25" cy="9" rx="1.2" ry="1.8" fill="#ffb3ba"/>
    
    <!-- Big expressive eyes (like in photo) -->
    <ellipse cx="12" cy="14" rx="3.5" ry="4" fill="url(#eyeGradient)"/>
    <ellipse cx="20" cy="14" rx="3.5" ry="4" fill="url(#eyeGradient)"/>
    
    <!-- Eye highlights (big and expressive) -->
    <ellipse cx="11.5" cy="12.5" rx="1.2" ry="1.5" fill="#ffffff" opacity="0.9"/>
    <ellipse cx="19.5" cy="12.5" rx="1.2" ry="1.5" fill="#ffffff" opacity="0.9"/>
    <circle cx="13" cy="13" r="0.4" fill="#ffffff"/>
    <circle cx="21" cy="13" r="0.4" fill="#ffffff"/>
    
    <!-- Small pupils for that innocent look -->
    <ellipse cx="12" cy="14.5" rx="0.8" ry="1" fill="#000000"/>
    <ellipse cx="20" cy="14.5" rx="0.8" ry="1" fill="#000000"/>
    
    <!-- Pink nose (like in photo) -->
    <ellipse cx="16" cy="18.5" rx="1" ry="0.7" fill="#ff9999"/>
    <ellipse cx="16" cy="18.3" rx="0.6" ry="0.4" fill="#ffb3b3"/>
    
    <!-- Mouth -->
    <path d="M16 19.5 Q13.5 21, 12 20" stroke="#444444" stroke-width="0.6" fill="none" stroke-linecap="round"/>
    <path d="M16 19.5 Q18.5 21, 20 20" stroke="#444444" stroke-width="0.6" fill="none" stroke-linecap="round"/>
    
    <!-- Whiskers -->
    <line x1="4" y1="16" x2="8" y2="15.5" stroke="#666666" stroke-width="0.4" stroke-linecap="round"/>
    <line x1="4" y1="18" x2="8" y2="18" stroke="#666666" stroke-width="0.4" stroke-linecap="round"/>
    <line x1="4" y1="20" x2="8" y2="20.5" stroke="#666666" stroke-width="0.4" stroke-linecap="round"/>
    
    <line x1="28" y1="16" x2="24" y2="15.5" stroke="#666666" stroke-width="0.4" stroke-linecap="round"/>
    <line x1="28" y1="18" x2="24" y2="18" stroke="#666666" stroke-width="0.4" stroke-linecap="round"/>
    <line x1="28" y1="20" x2="24" y2="20.5" stroke="#666666" stroke-width="0.4" stroke-linecap="round"/>
    
    <!-- Subtle face markings -->
    <path d="M16 11 Q14 12, 12 11" stroke="rgba(200,200,200,0.5)" stroke-width="0.3" fill="none"/>
    <path d="M16 11 Q18 12, 20 11" stroke="rgba(200,200,200,0.5)" stroke-width="0.3" fill="none"/>
</svg> 